o Cube
v 0.500000 -0.500000 -0.500000
v 0.500000 -0.500000 0.500000
v -0.500000 -0.500000 0.500000
v -0.500000 -0.500000 -0.500000
v 0.500000 0.500000 -0.500000
v 0.500000 0.500000 0.500000
v -0.500000 0.500000 0.500000
v -0.500000 0.500000 -0.500000

#RED 1 2 3 4
vt 0.000000 0.000000
vt 0.000000 1.000000
vt 0.125000 1.000000
vt 0.125000 0.000000
#BLUE 5 6 7 8
vt 0.125000 0.000000
vt 0.125000 1.000000
vt 0.250000 1.000000
vt 0.250000 0.000000
#WHITE 9 10 11 12
vt 0.250000 0.000000
vt 0.250000 1.000000
vt 0.375000 1.000000
vt 0.375000 0.000000
#YELLOW 13 14 15 16
vt 0.375000 0.000000
vt 0.375000 1.000000
vt 0.500000 1.000000
vt 0.500000 0.000000
#GREEN 17 18 19 20
vt 0.500000 0.000000
vt 0.500000 1.000000
vt 0.625000 1.000000
vt 0.625000 0.000000
#ORANGE 21 22 23 24
vt 0.625000 0.000000
vt 0.625000 1.000000
vt 0.750000 1.000000
vt 0.750000 0.000000
#BLACK 25 26 27 28
vt 0.875000 0.000000
vt 0.875000 1.000000
vt 1.000000 1.000000
vt 1.000000 0.000000

vn 0.000000 -1.000000 0.000000
vn 0.000000 1.000000 0.000000
vn 1.000000 0.000000 0.000000
vn 0.000000 0.000000 1.000000
vn -1.000000 0.000000 0.000000
vn 0.000000 0.000000 -1.000000
s off
# 3 4 1
# 2 3 1
#GREEN  BOT
f 2/19/1 3/20/1 4/17/1
f 1/18/1 2/19/1 4/17/1

#BLUE   TOP
f 8/7/2 7/8/2 6/5/2
f 5/6/2 8/7/2 6/5/2

#RED    RIGHT
f 5/3/3 6/4/3 2/1/3
f 1/2/3 5/3/3 2/1/3

#WHITE  FRONT
f 6/11/4 7/12/4 3/9/4
f 2/10/4 6/11/4 3/9/4

#YELLOW LEFT
f 3/15/5 7/16/5 8/13/5
f 4/14/5 3/15/5 8/13/5

#ORANGE BACK
f 1/23/6 4/24/6 8/21/6
f 5/22/6 1/23/6 8/21/6
