o Cube
v 0.500000 -0.100000 -0.500000
v 0.500000 -0.100000 0.500000
v -0.500000 -0.100000 0.500000
v -0.500000 -0.100000 -0.500000
v 0.500000 0.100000 -0.500000
v 0.500000 0.100000 0.500000
v -0.500000 0.100000 0.500000
v -0.500000 0.100000 -0.500000
vt 0.000000 0.000000
vt 0.000000 1.000000
vt 1.000000 1.000000
vt 1.000000 0.000000
vn 0.000000 -1.000000 0.000000
vn 0.000000 1.000000 0.000000
vn 1.000000 0.000000 0.000000
vn -0.000000 0.000000 1.000000
vn -1.000000 -0.000000 -0.000000
vn 0.000000 0.000000 -1.000000
s off
f 2/3/1 3/4/1 4/1/1
f 8/3/2 7/4/2 6/1/2
f 5/3/3 6/4/3 2/1/3
f 6/3/4 7/4/4 3/1/4
f 3/3/5 7/4/5 8/1/5
f 1/3/6 4/4/6 8/1/6
f 1/2/1 2/3/1 4/1/1
f 5/2/2 8/3/2 6/1/2
f 1/2/3 5/3/3 2/1/3
f 2/2/4 6/3/4 3/1/4
f 4/2/5 3/3/5 8/1/5
f 5/2/6 1/3/6 8/1/6
